<?xml version="1.0" encoding="iso-8859-1"?>
<!-- Generator: Adobe Illustrator 21.0.0, SVG Export Plug-In . SVG Version: 6.00 Build 0)  -->
<svg version="1.1" id="Layer_1" xmlns="http://www.w3.org/2000/svg" xmlns:xlink="http://www.w3.org/1999/xlink" x="0px" y="0px"
	 viewBox="0 0 512 512" style="enable-background:new 0 0 512 512;" xml:space="preserve">
<path style="fill:#FFC61B;" d="M466.702,512H197.603c-8.063,0-14.599-6.537-14.599-14.599s6.536-14.599,14.599-14.599h269.099
	c6.345,0,11.507-5.162,11.507-11.507V125.589c0-6.345-5.162-11.507-11.507-11.507h-336.52c-6.346,0-11.508,5.162-11.508,11.507
	c0,8.062-6.536,14.599-14.599,14.599s-14.599-6.537-14.599-14.599c0-22.445,18.26-40.705,40.706-40.705h336.52
	c22.446,0,40.705,18.26,40.705,40.705v345.706C507.407,493.74,489.148,512,466.702,512z"/>
<path style="fill:#FEE187;" d="M130.182,99.483h277.742V40.705c0-14.418-11.688-26.106-26.106-26.106H45.298
	c-14.418,0-26.106,11.688-26.106,26.106v345.706c0,14.418,11.688,26.106,26.106,26.106h58.778V125.591
	C104.076,111.173,115.764,99.483,130.182,99.483z"/>
<g>
	<path style="fill:#FFC61B;" d="M104.076,427.116H45.298c-22.446,0-40.705-18.26-40.705-40.706V40.705
		C4.593,18.26,22.852,0,45.298,0h336.52c22.446,0,40.705,18.26,40.705,40.705v58.78c0,8.062-6.536,14.599-14.599,14.599H130.182
		c-6.345,0-11.507,5.162-11.507,11.507v286.927C118.675,420.58,112.139,427.116,104.076,427.116z M45.298,29.198
		c-6.345,0-11.507,5.162-11.507,11.507v345.706c0,6.346,5.162,11.508,11.507,11.508h44.179v-272.33
		c0-22.445,18.26-40.705,40.705-40.705h263.144V40.705c0-6.345-5.162-11.507-11.507-11.507
		C381.819,29.198,45.298,29.198,45.298,29.198z"/>
	<path style="fill:#FFC61B;" d="M210.799,400.667c-3.736,0-7.473-1.426-10.323-4.276c-5.701-5.701-5.702-14.945,0-20.647
		L378.219,198c5.701-5.699,14.945-5.699,20.647,0c5.701,5.701,5.701,14.945,0,20.647L221.124,396.391
		C218.271,399.242,214.535,400.667,210.799,400.667z"/>
	<path style="fill:#FFC61B;" d="M390.941,303.04c-0.718,0-1.444-0.053-2.175-0.161c-7.974-1.191-13.473-8.622-12.282-16.596
		l11.573-77.474l-77.474,11.576c-7.975,1.18-15.405-4.308-16.596-12.282s4.307-15.405,12.282-16.596l96.984-14.49
		c4.571-0.676,9.208,0.844,12.479,4.115c3.273,3.273,4.8,7.902,4.115,12.481l-14.488,96.986
		C404.278,297.84,398.049,303.04,390.941,303.04z"/>
	<path style="fill:#FFC61B;" d="M191.473,419.991c-3.842,0-7.565-1.518-10.323-4.276c-3.272-3.273-4.799-7.902-4.115-12.481
		l14.488-96.986c1.191-7.975,8.625-13.469,16.596-12.282c7.974,1.191,13.473,8.622,12.282,16.596l-11.574,77.474l77.474-11.574
		c7.97-1.184,15.403,4.308,16.596,12.282c1.191,7.974-4.308,15.405-12.282,16.596l-96.984,14.488
		C192.911,419.937,192.19,419.991,191.473,419.991z"/>
</g>
</svg>
