<?xml version="1.0" encoding="iso-8859-1"?>
<!-- Generator: Adobe Illustrator 21.0.0, SVG Export Plug-In . SVG Version: 6.00 Build 0)  -->
<svg version="1.1" id="Layer_1" xmlns="http://www.w3.org/2000/svg" xmlns:xlink="http://www.w3.org/1999/xlink" x="0px" y="0px"
	 viewBox="0 0 439 512" style="enable-background:new 0 0 439 512;" xml:space="preserve">
<rect x="36.661" y="157.323" style="fill:#FEE187;" width="70.769" height="197.369"/>
<path style="fill:#FFC61B;" d="M107.431,370.404H36.659c-8.684,0-15.723-7.041-15.723-15.723V157.317
	c0-8.682,7.039-15.723,15.723-15.723h70.772c8.684,0,15.723,7.041,15.723,15.723v197.365
	C123.154,363.365,116.115,370.404,107.431,370.404z M52.382,338.959h39.326V173.04H52.382V338.959z"/>
<path style="fill:none;stroke:#FFC61B;stroke-width:20;stroke-linecap:round;stroke-linejoin:round;stroke-miterlimit:10;" d="
	M349.278,123.988"/>
<path style="fill:#EF0707;" d="M415.44,290.54l-38.542-38.542l38.542-38.542c6.139-6.14,6.14-16.096,0-22.236
	c-6.141-6.14-16.097-6.139-22.236,0l-38.541,38.541l-38.542-38.541c-6.14-6.139-16.096-6.14-22.236,0
	c-6.14,6.141-6.139,16.097,0,22.236l38.542,38.542l-38.542,38.542c-6.139,6.14-6.14,16.096,0,22.236
	c6.141,6.14,16.095,6.14,22.236,0l38.542-38.542l38.542,38.542c6.14,6.139,16.096,6.14,22.236,0S421.58,296.681,415.44,290.54z"/>
<g>
	<path style="fill:#FFC61B;" d="M335.501,464.004L186.046,347.023V164.977L335.502,47.996V67h31.444V15.721
		c0-6.014-3.431-11.5-8.836-14.135c-5.406-2.63-11.842-1.951-16.577,1.753l-180.9,141.596c-3.807,2.981-6.031,7.547-6.031,12.382
		v197.365c0,4.835,2.225,9.401,6.031,12.382L341.534,508.66c2.821,2.206,6.244,3.341,9.693,3.341c2.343,0,4.698-0.524,6.883-1.588
		c5.406-2.635,8.836-8.121,8.836-14.135V456.75H335.5v7.254H335.501z"/>
	<path style="fill:#FFC61B;" d="M351.224,384.404c-8.684,0-15.723,7.041-15.723,15.723v56.623h31.446v-56.623
		C366.947,391.445,359.908,384.404,351.224,384.404z"/>
	<path style="fill:#FFC61B;" d="M351.224,130.75c8.684,0,15.723-7.041,15.723-15.723V58.404h-31.446v56.623
		C335.501,123.709,342.54,130.75,351.224,130.75z"/>
</g>
</svg>
