<?xml version="1.0" encoding="iso-8859-1"?>
<!-- Generator: Adobe Illustrator 21.0.0, SVG Export Plug-In . SVG Version: 6.00 Build 0)  -->
<svg version="1.1" id="Layer_1" xmlns="http://www.w3.org/2000/svg" xmlns:xlink="http://www.w3.org/1999/xlink" x="0px" y="0px"
	 viewBox="0 0 512 512" style="enable-background:new 0 0 512 512;" xml:space="preserve">
<path style="fill:#FFC61B;" d="M466.702,512H197.603c-8.063,0-14.599-6.537-14.599-14.599s6.536-14.599,14.599-14.599h269.099
	c6.345,0,11.507-5.162,11.507-11.507V125.589c0-6.345-5.162-11.507-11.507-11.507h-336.52c-6.346,0-11.508,5.162-11.508,11.507
	c0,8.062-6.536,14.599-14.599,14.599s-14.599-6.537-14.599-14.599c0-22.445,18.26-40.705,40.706-40.705h336.52
	c22.446,0,40.705,18.26,40.705,40.705v345.706C507.407,493.74,489.148,512,466.702,512z"/>
<path style="fill:#FEE187;" d="M130.182,99.483h277.742V40.705c0-14.418-11.688-26.106-26.106-26.106H45.298
	c-14.418,0-26.106,11.688-26.106,26.106v345.706c0,14.418,11.688,26.106,26.106,26.106h58.778V125.591
	C104.076,111.173,115.764,99.483,130.182,99.483z"/>
<g>
	<path style="fill:#FFC61B;" d="M104.076,427.116H45.298c-22.446,0-40.705-18.26-40.705-40.706V40.705
		C4.593,18.26,22.852,0,45.298,0h336.52c22.446,0,40.705,18.26,40.705,40.705v58.78c0,8.062-6.536,14.599-14.599,14.599H130.182
		c-6.345,0-11.507,5.162-11.507,11.507v286.927C118.675,420.58,112.139,427.116,104.076,427.116z M45.298,29.198
		c-6.345,0-11.507,5.162-11.507,11.507v345.706c0,6.346,5.162,11.508,11.507,11.508h44.179v-272.33
		c0-22.445,18.26-40.705,40.705-40.705h263.144V40.705c0-6.345-5.162-11.507-11.507-11.507
		C381.819,29.198,45.298,29.198,45.298,29.198z"/>
</g>
<path style="fill:#EF0707;" d="M359.551,336.651L321.01,298.11l38.542-38.542c6.139-6.14,6.14-16.096,0-22.236
	c-6.141-6.14-16.097-6.139-22.236,0l-38.541,38.541l-38.542-38.541c-6.14-6.139-16.096-6.14-22.236,0
	c-6.14,6.141-6.139,16.097,0,22.236l38.542,38.542l-38.542,38.542c-6.139,6.14-6.14,16.096,0,22.236
	c6.141,6.14,16.095,6.14,22.236,0l38.542-38.542l38.542,38.542c6.14,6.139,16.096,6.14,22.236,0S365.691,342.792,359.551,336.651z"
	/>
</svg>
