<?xml version="1.0" encoding="iso-8859-1"?>
<!-- Generator: Adobe Illustrator 21.0.0, SVG Export Plug-In . SVG Version: 6.00 Build 0)  -->
<svg version="1.1" id="Layer_1" xmlns="http://www.w3.org/2000/svg" xmlns:xlink="http://www.w3.org/1999/xlink" x="0px" y="0px"
	 viewBox="0 0 511.999 511.999" style="enable-background:new 0 0 511.999 511.999;" xml:space="preserve">
<path style="fill:#FFC61B;" d="M310.053,269.982H201.949c-7.721,0-13.982-6.26-13.982-13.982s6.261-13.982,13.982-13.982h108.104
	c7.721,0,13.982,6.26,13.982,13.982C324.034,263.722,317.773,269.982,310.053,269.982z"/>
<path style="fill:#FEE187;" d="M390.749,256l-75.41,73.376v81.243c0,9.872,11.918,14.836,18.926,7.882l163.754-162.502
	L334.265,93.498c-7.008-6.954-18.926-1.991-18.926,7.881v81.243L390.749,256z"/>
<path style="fill:#FFC61B;" d="M507.867,246.076L344.113,83.573c-4.745-4.709-10.991-7.301-17.59-7.301
	c-13.877,0-25.166,11.264-25.166,25.108v81.243c0,3.775,1.527,7.389,4.231,10.021L370.698,256l-57.985,56.422h-50.145
	c-7.721,0-13.982,6.26-13.982,13.982s6.261,13.982,13.982,13.982h38.788v70.234c0,13.843,11.289,25.107,25.164,25.108
	c0.001,0,0.001,0,0.001,0c6.599,0,12.846-2.592,17.59-7.301l163.754-162.502c2.645-2.624,4.133-6.198,4.133-9.924
	C511.999,252.274,510.512,248.7,507.867,246.076z M329.321,403.71v-68.431l71.178-69.26c2.705-2.631,4.231-6.246,4.231-10.021
	c0-3.775-1.527-7.389-4.231-10.021l-71.178-69.26v-68.429L478.17,256L329.321,403.71z"/>
<path style="fill:#FEE187;" d="M121.251,256l75.41,73.376v81.243c0,9.872-11.918,14.836-18.926,7.882L13.982,256L177.735,93.498
	c7.008-6.954,18.926-1.991,18.926,7.881v81.243L121.251,256z"/>
<path style="fill:#FFC61B;" d="M248.479,171.615h-37.836v-70.236c0-13.845-11.289-25.108-25.166-25.108
	c-6.599,0-12.846,2.592-17.59,7.301L4.133,246.076C1.488,248.7,0,252.272,0,256c0,3.728,1.488,7.3,4.133,9.924l163.754,162.502
	c4.745,4.709,10.991,7.301,17.59,7.301c13.877,0,25.166-11.264,25.166-25.108v-81.243c0-3.775-1.527-7.389-4.231-10.021L141.302,256
	l57.985-56.422h49.192c7.721,0,13.982-6.26,13.982-13.982C262.46,177.875,256.199,171.615,248.479,171.615z M182.679,176.72
	l-71.178,69.26c-2.705,2.631-4.231,6.246-4.231,10.021c0,3.775,1.527,7.389,4.231,10.021l71.178,69.26v68.431L33.83,256
	l148.849-147.711V176.72z"/>
</svg>
