<?xml version="1.0" encoding="iso-8859-1"?>
<!-- Generator: Adobe Illustrator 21.0.0, SVG Export Plug-In . SVG Version: 6.00 Build 0)  -->
<svg version="1.1" id="Layer_1" xmlns="http://www.w3.org/2000/svg" xmlns:xlink="http://www.w3.org/1999/xlink" x="0px" y="0px"
	 viewBox="-49 141 588 512" style="enable-background:new -49 141 588 512;" xml:space="preserve">
<rect x="-12.339" y="298.323" style="fill:#FEE187;" width="70.769" height="197.369"/>
<path style="fill:#FFC61B;" d="M58.431,511.404h-70.772c-8.684,0-15.723-7.041-15.723-15.723V298.317
	c0-8.682,7.039-15.723,15.723-15.723h70.772c8.684,0,15.723,7.041,15.723,15.723v197.365
	C74.154,504.365,67.115,511.404,58.431,511.404z M3.382,479.959h39.326V314.04H3.382V479.959z"/>
<path style="fill:#FEE187;" d="M303.705,450.456c-0.497,0-0.987-0.024-1.481-0.038v-106.84c0.494-0.014,0.984-0.038,1.481-0.038
	c29.524,0,53.458,23.933,53.458,53.458S333.23,450.456,303.705,450.456z"/>
<g>
	<path style="fill:#FFC61B;" d="M286.501,450.418L286.501,450.418c0,0.539,0.028,1.071,0.08,1.596
		c0.016,0.164,0.05,0.321,0.072,0.481c0.047,0.358,0.091,0.717,0.164,1.068c0.039,0.195,0.097,0.38,0.145,0.572
		c0.075,0.31,0.145,0.623,0.237,0.923c0.061,0.2,0.142,0.391,0.211,0.588c0.101,0.285,0.193,0.571,0.31,0.847
		c0.082,0.197,0.181,0.382,0.27,0.574c0.124,0.266,0.244,0.536,0.382,0.794c0.099,0.186,0.215,0.36,0.322,0.541
		c0.149,0.252,0.294,0.508,0.456,0.752c0.115,0.17,0.242,0.33,0.363,0.495c0.174,0.241,0.346,0.483,0.533,0.714
		c0.126,0.154,0.264,0.297,0.396,0.447c0.2,0.226,0.396,0.454,0.607,0.668c0.138,0.14,0.288,0.269,0.432,0.402
		c0.222,0.208,0.44,0.417,0.673,0.612c0.151,0.126,0.313,0.241,0.469,0.36c0.241,0.186,0.478,0.373,0.728,0.546
		c0.165,0.113,0.34,0.214,0.509,0.321c0.255,0.16,0.508,0.322,0.772,0.469c0.181,0.099,0.37,0.186,0.555,0.278
		c0.266,0.134,0.528,0.269,0.802,0.387c0.197,0.085,0.401,0.156,0.602,0.234c0.272,0.104,0.544,0.212,0.824,0.302
		c0.212,0.068,0.431,0.121,0.646,0.181c0.28,0.077,0.558,0.156,0.844,0.217c0.223,0.049,0.45,0.08,0.676,0.12
		c0.289,0.049,0.577,0.099,0.871,0.132c0.228,0.025,0.459,0.036,0.689,0.052c0.231,0.016,0.458,0.046,0.69,0.052l0.36,0.011
		c0.502,0.017,1.003,0.031,1.509,0.031c38.147,0,69.181-31.034,69.181-69.181c0-33.265-23.602-61.115-54.937-67.7V156.721
		c0-6.014-3.431-11.5-8.836-14.135c-5.406-2.63-11.842-1.951-16.577,1.753l-180.9,141.596c-3.807,2.981-6.031,7.547-6.031,12.382
		v197.365c0,4.835,2.225,9.401,6.031,12.382l180.901,141.596c2.821,2.206,6.244,3.341,9.693,3.341c2.343,0,4.698-0.524,6.884-1.588
		c5.406-2.635,8.836-8.121,8.836-14.135v-96.15c0-8.682-7.039-15.723-15.723-15.723c-8.684,0-15.723,7.041-15.723,15.723v63.877
		L137.046,488.023V305.977l149.455-116.981v154.583V450.418z M341.44,396.998c0,15.77-9.725,29.314-23.492,34.946v-69.89
		C331.715,367.686,341.44,381.228,341.44,396.998z"/>
	<path style="fill:#FFC61B;" d="M371.834,512.34c-5.17,0-10.229-2.546-13.236-7.215c-4.7-7.303-2.59-17.031,4.712-21.731
		c29.622-19.066,47.307-51.362,47.307-86.394s-17.685-67.329-47.307-86.394c-7.302-4.7-9.412-14.429-4.712-21.731
		c4.7-7.302,14.43-9.409,21.731-4.712c38.655,24.88,61.734,67.061,61.734,112.838s-23.078,87.957-61.734,112.838
		C377.697,511.53,374.747,512.34,371.834,512.34z"/>
	<path style="fill:#FFC61B;" d="M425.201,550.678c2.85,0,5.634-0.82,8.051-2.373c51.832-33.362,82.779-89.923,82.779-151.296
		c0-61.374-30.948-117.935-82.786-151.3c-2.411-1.551-5.193-2.372-8.043-2.372c-5.105,0-9.798,2.556-12.554,6.838
		c-4.447,6.91-2.443,16.149,4.466,20.596c43.275,27.853,69.111,75.044,69.111,126.235c0,51.191-25.836,98.381-69.111,126.235
		c-6.909,4.447-8.913,13.687-4.466,20.597C415.407,548.121,420.099,550.678,425.201,550.678z"/>
	<path style="fill:#FFC61B;" d="M243.163,482.951c-8.684,0-15.723-7.041-15.723-15.723V326.769c0-8.682,7.039-15.723,15.723-15.723
		c8.684,0,15.723,7.041,15.723,15.723v140.459C258.886,475.912,251.846,482.951,243.163,482.951z"/>
</g>
</svg>
